<svg width="17" height="17" viewBox="0 0 17 17" fill="none" xmlns="http://www.w3.org/2000/svg">
<path d="M7.19688 3.09645H10.3969C10.3969 2.68246 10.2283 2.28542 9.92825 1.99268C9.62819 1.69994 9.22122 1.53548 8.79688 1.53548C8.37253 1.53548 7.96556 1.69994 7.6655 1.99268C7.36545 2.28542 7.19688 2.68246 7.19688 3.09645ZM5.99688 3.09645C5.99688 2.73772 6.0693 2.3825 6.21001 2.05107C6.35073 1.71965 6.55697 1.41851 6.81698 1.16484C7.07698 0.911182 7.38565 0.709966 7.72536 0.572685C8.06507 0.435404 8.42917 0.364746 8.79688 0.364746C9.16458 0.364746 9.52868 0.435404 9.86839 0.572685C10.2081 0.709966 10.5168 0.911182 10.7768 1.16484C11.0368 1.41851 11.243 1.71965 11.3837 2.05107C11.5245 2.3825 11.5969 2.73772 11.5969 3.09645H16.1969C16.356 3.09645 16.5086 3.15813 16.6211 3.2679C16.7337 3.37768 16.7969 3.52657 16.7969 3.68182C16.7969 3.83707 16.7337 3.98596 16.6211 4.09574C16.5086 4.20551 16.356 4.26718 16.1969 4.26718H15.1409L14.2049 13.7197C14.1331 14.4439 13.7873 15.1162 13.235 15.6052C12.6827 16.0942 11.9635 16.365 11.2177 16.3647H6.37608C5.63037 16.3648 4.91136 16.094 4.35923 15.6049C3.80711 15.1159 3.46146 14.4438 3.38968 13.7197L2.45288 4.26718H1.39688C1.23775 4.26718 1.08513 4.20551 0.972611 4.09574C0.860089 3.98596 0.796875 3.83707 0.796875 3.68182C0.796875 3.52657 0.860089 3.37768 0.972611 3.2679C1.08513 3.15813 1.23775 3.09645 1.39688 3.09645H5.99688ZM7.59688 6.80377C7.59688 6.64852 7.53366 6.49963 7.42114 6.38985C7.30862 6.28008 7.156 6.2184 6.99688 6.2184C6.83775 6.2184 6.68513 6.28008 6.57261 6.38985C6.46009 6.49963 6.39687 6.64852 6.39687 6.80377V12.6574C6.39687 12.8127 6.46009 12.9616 6.57261 13.0713C6.68513 13.1811 6.83775 13.2428 6.99688 13.2428C7.156 13.2428 7.30862 13.1811 7.42114 13.0713C7.53366 12.9616 7.59688 12.8127 7.59688 12.6574V6.80377ZM10.5969 6.2184C10.756 6.2184 10.9086 6.28008 11.0211 6.38985C11.1337 6.49963 11.1969 6.64852 11.1969 6.80377V12.6574C11.1969 12.8127 11.1337 12.9616 11.0211 13.0713C10.9086 13.1811 10.756 13.2428 10.5969 13.2428C10.4377 13.2428 10.2851 13.1811 10.1726 13.0713C10.0601 12.9616 9.99687 12.8127 9.99687 12.6574V6.80377C9.99687 6.64852 10.0601 6.49963 10.1726 6.38985C10.2851 6.28008 10.4377 6.2184 10.5969 6.2184ZM4.58408 13.6073C4.62722 14.0417 4.83467 14.4449 5.16597 14.7383C5.49727 15.0316 5.92867 15.1941 6.37608 15.194H11.2177C11.6651 15.1941 12.0965 15.0316 12.4278 14.7383C12.7591 14.4449 12.9665 14.0417 13.0097 13.6073L13.9361 4.26718H3.65768L4.58408 13.6073Z" fill="#14142D"/>
</svg>
